<svg width="15" height="15" viewBox="0 0 15 15" fill="none" xmlns="http://www.w3.org/2000/svg">
<rect width="15" height="15" fill="#2B490F"/>
<path d="M4.06066 5.93934C3.47487 5.35355 2.52513 5.35355 1.93934 5.93934C1.35355 6.52513 1.35355 7.47487 1.93934 8.06066L4.06066 5.93934ZM7 11L5.93934 12.0607C6.27118 12.3925 6.7392 12.5499 7.20412 12.486C7.66905 12.4222 8.07729 12.1444 8.30736 11.7354L7 11ZM12.8074 3.73539C13.2135 3.01336 12.9574 2.09878 12.2354 1.69264C11.5134 1.28649 10.5988 1.54257 10.1926 2.26461L12.8074 3.73539ZM1.93934 8.06066L5.93934 12.0607L8.06066 9.93934L4.06066 5.93934L1.93934 8.06066ZM8.30736 11.7354L12.8074 3.73539L10.1926 2.26461L5.69264 10.2646L8.30736 11.7354Z" fill="white"/>
</svg>
